<svg xmlns="http://www.w3.org/2000/svg" width="69" height="80"><defs><linearGradient id="a" x1="56.24" x2="0" y1="80" y2="16.01" gradientUnits="userSpaceOnUse"><stop offset="0" stop-color="#c813d9"/><stop offset="1" stop-color="#4590f2"/></linearGradient></defs><path fill="url(#a)" d="M34.286 45.714c-10.515 0-19.048-8.533-19.048-19.047h7.62a11.413 11.413 0 0011.428 11.428 11.413 11.413 0 0011.428-11.428h7.62c0 10.514-8.534 19.047-19.048 19.047zm0-38.095a11.413 11.413 0 0111.428 11.429H22.857A11.413 11.413 0 0134.286 7.619zm26.666 11.429h-7.619C53.333 8.533 44.8 0 34.286 0 23.77 0 15.238 8.533 15.238 19.048H7.62c-4.19 0-7.58 3.428-7.58 7.619L0 72.38C0 76.571 3.429 80 7.619 80h53.333c4.19 0 7.62-3.429 7.62-7.619V26.667c0-4.19-3.43-7.62-7.62-7.62z"/></svg>