<svg xmlns="http://www.w3.org/2000/svg" width="42.421" height="35.975"><g fill="#fbc02d"><path data-name="Контур 10482" d="M28.977 10.489l-4.474-.65-2-4.054H19.92l-2 4.054-4.474.65-.8 2.456 3.237 3.156-.764 4.456 2.09 1.518 4-2.1 4 2.1 2.09-1.518-.764-4.456 3.237-3.156zm-5.11 4.744l.627 3.656-3.281-1.728-3.283 1.726.627-3.656-2.656-2.589 3.671-.533 1.642-3.326 1.642 3.326 3.671.533z"/><path data-name="Контур 10483" d="M37.416-.002H5.005A5.011 5.011 0 000 5.005V23.15a5.011 5.011 0 005.005 5.005H6v7.819l10.8-7.819h20.616a5.011 5.011 0 005.005-5.005V5.005a5.011 5.011 0 00-5.005-5.007zm2.52 23.15a2.523 2.523 0 01-2.52 2.52H16l-7.511 5.439V25.67H5.005a2.522 2.522 0 01-2.52-2.52V5.005a2.523 2.523 0 012.52-2.52h32.41a2.523 2.523 0 012.52 2.52z"/></g></svg>