<svg xmlns="http://www.w3.org/2000/svg" width="43" height="43"><defs><linearGradient id="a" x1="4.95" x2="38.33" y1="0" y2="35.47" gradientUnits="userSpaceOnUse"><stop offset="0" stop-color="#18bdfb"/><stop offset="1" stop-color="#d30ad8"/></linearGradient></defs><path fill="url(#a)" d="M39.643 37.264l-3.74-3.74a1.68 1.68 0 00-1.187-.491H16.574V16.57h23.069zM8.453 23.122c-.438 0-.859.171-1.172.477L3.36 27.424V3.356h29.675v9.855H14.894a1.68 1.68 0 00-1.68 1.68v8.23zm32.87-9.911h-4.928V1.677a1.68 1.68 0 00-1.68-1.68H1.68A1.68 1.68 0 000 1.677v29.732c0 1.489 1.794 2.235 2.853 1.202l6.284-6.13h4.077v8.231c0 .928.753 1.68 1.68 1.68H34.02l6.115 6.115c1.05 1.051 2.868.314 2.868-1.187V14.89a1.68 1.68 0 00-1.68-1.679z"/></svg>