<svg xmlns="http://www.w3.org/2000/svg" width="65" height="65"><g data-name="Контур 10484" fill="#332f5f"><path d="M32.5 64a31.396 31.396 0 01-22.274-9.226A31.396 31.396 0 011 32.5a31.396 31.396 0 019.226-22.274A31.396 31.396 0 0132.5 1a31.396 31.396 0 0122.274 9.226A31.396 31.396 0 0164 32.5a31.396 31.396 0 01-9.226 22.274A31.396 31.396 0 0132.5 64z"/><path d="M32.5 2a30.401 30.401 0 00-21.567 8.933A30.401 30.401 0 002 32.5a30.401 30.401 0 008.933 21.567A30.401 30.401 0 0032.5 63a30.401 30.401 0 0021.567-8.933A30.401 30.401 0 0063 32.5a30.401 30.401 0 00-8.933-21.567A30.401 30.401 0 0032.5 2m0-2C50.45 0 65 14.55 65 32.5S50.45 65 32.5 65 0 50.45 0 32.5 14.55 0 32.5 0z" fill="#4a8cf1"/></g><g data-name="Сгруппировать 12152" fill="#fff"><path data-name="Контур 10454" d="M51.701 35.339h-20.72a.773.773 0 00-.773.779l.079 9.977a.773.773 0 00.773.766h6.816a.773.773 0 100-1.545h-6.05l-.067-8.432h19.175l.067 8.432h-6.117a.773.773 0 000 1.545h6.9a.773.773 0 00.773-.779l-.079-9.977a.773.773 0 00-.777-.766z"/><path data-name="Контур 10455" d="M42.108 45.793a.772.772 0 10-.284.938.78.78 0 00.284-.938z"/><path data-name="Контур 10456" d="M20.161 33.937a7.163 7.163 0 107.161 7.162 7.17 7.17 0 00-7.161-7.162zm0 12.78a5.618 5.618 0 115.616-5.618 5.623 5.623 0 01-5.616 5.618z"/><path data-name="Контур 10457" d="M20.161 17.082a7.163 7.163 0 107.161 7.163 7.17 7.17 0 00-7.161-7.163zm0 12.78a5.618 5.618 0 115.616-5.617 5.623 5.623 0 01-5.616 5.617z"/><path data-name="Контур 10458" d="M22.179 22.226a.772.772 0 00-1.092 0l-.921.924-.925-.926a.773.773 0 00-1.093 1.092l.926.926-.926.926a.772.772 0 101.092 1.092l.926-.926.926.926a.772.772 0 001.092-1.092l-.926-.926.926-.926a.772.772 0 00-.005-1.09z"/><path data-name="Контур 10459" d="M31.06 30.006h20.72a.773.773 0 00.773-.779l-.079-9.977a.773.773 0 00-.772-.766h-20.72a.773.773 0 00-.773.779l.079 9.977a.773.773 0 00.772.766zm19.874-9.977l.067 8.432H31.827l-.067-8.432z"/><path data-name="Контур 10460" d="M35.832 23.392h12.5a.773.773 0 000-1.545h-12.5a.773.773 0 100 1.545z"/><path data-name="Контур 10461" d="M35.832 26.64h8.055a.773.773 0 000-1.545h-8.055a.773.773 0 100 1.545z"/><path data-name="Контур 10462" d="M35.832 40.495h12.5a.773.773 0 000-1.545h-12.5a.773.773 0 100 1.545z"/><path data-name="Контур 10463" d="M44.659 42.975a.773.773 0 00-.772-.773h-8.055a.773.773 0 100 1.545h8.055a.772.772 0 00.772-.772z"/><path data-name="Контур 10464" d="M22.116 39.266a.773.773 0 00-1.079.173l-1.229 1.7-.614-.586a.772.772 0 10-1.067 1.117l1.255 1.2a.772.772 0 00.533.214h.07a.773.773 0 00.556-.316l1.748-2.415a.772.772 0 00-.173-1.087z"/></g></svg>