<svg xmlns="http://www.w3.org/2000/svg" width="43" height="43"><defs><linearGradient id="a" x1="4.8" x2="37.91" y1="8.55" y2="36.93" gradientUnits="userSpaceOnUse"><stop offset="0" stop-color="#3d98f4"/><stop offset="1" stop-color="#c615da"/></linearGradient></defs><path fill="url(#a)" d="M34.747 21.5a1.68 1.68 0 10-3.36 0c0 5.45-4.435 9.886-9.887 9.886-5.451 0-9.886-4.435-9.886-9.887 0-5.451 4.435-9.886 9.886-9.886a1.68 1.68 0 100-3.36c-7.303 0-13.246 5.942-13.246 13.246S14.197 34.745 21.5 34.745c7.305 0 13.247-5.942 13.247-13.246zM21.5 39.64c-10.026 0-18.14-8.113-18.14-18.14 0-10.027 8.113-18.142 18.14-18.142 2.613 0 5.178.56 7.528 1.631L26.92 7.098a1.68 1.68 0 00-.492 1.187v5.911l-6.115 6.116a1.68 1.68 0 002.375 2.375l6.115-6.115h5.911a1.68 1.68 0 001.188-.492l2.109-2.108a18.14 18.14 0 011.63 7.527c0 10.026-8.113 18.141-18.14 18.141zM34.714 9.965h2.552l-3.247 3.247h-4.232v-4.23l3.248-3.248v2.551c0 .928.752 1.68 1.68 1.68zm5.805 1.499l1.99-1.99c1.055-1.055.308-2.869-1.188-2.869h-4.927V1.68c0-1.492-1.81-2.245-2.868-1.188l-1.99 1.99A21.479 21.479 0 0021.5 0C9.618-.001 0 9.615 0 21.499 0 33.382 9.616 43 21.5 43c11.883 0 21.501-9.615 21.501-21.5 0-3.513-.855-6.955-2.482-10.035z"/></svg>