<svg xmlns="http://www.w3.org/2000/svg" width="38.243" height="43.706"><path data-name="Контур 10414" d="M36.877 0H4.78A4.786 4.786 0 000 4.78v34.146a4.786 4.786 0 004.78 4.78h32.1a1.366 1.366 0 001.366-1.366V1.366A1.366 1.366 0 0036.877 0zm-1.366 34.146H8.195V2.732h27.316zM2.732 4.78A2.051 2.051 0 014.78 2.732h.683v31.414a5.607 5.607 0 00-2.732.459zm32.78 36.194H4.78a2.05 2.05 0 010-4.1h30.731z" fill="#fff"/><path data-name="Контур 10415" d="M11.8 16.562a1.366 1.366 0 001.728-.864l.372-1.115h3.494l.372 1.115a1.366 1.366 0 102.591-.864l-2.516-7.547a2.315 2.315 0 00-4.389 0l-2.516 7.547a1.366 1.366 0 00.864 1.728zm4.683-4.71H14.81l.837-2.51z" fill="#fff"/></svg>