<svg xmlns="http://www.w3.org/2000/svg" width="48" height="53"><defs><linearGradient id="a" x1="-75" x2="-75" y1="-278" y2="-278" gradientUnits="userSpaceOnUse"><stop offset="0" stop-color="#3c99f4"/><stop offset="1" stop-color="#cc10d9"/></linearGradient></defs><path fill="url(#a)" d="M43.98 49.644H6.665a2.488 2.488 0 010-4.975H43.98zM4.178 5.695a2.49 2.49 0 012.487-2.487h.83v38.144c-.915 0-1.985-.076-3.317.557zM43.98 41.352H10.811V3.208h33.17zM45.64-.11H6.665A5.811 5.811 0 00.861 5.695v41.461c0 3.2 2.604 5.805 5.804 5.805H45.64a1.66 1.66 0 001.658-1.659V1.55c0-.916-.743-1.658-1.658-1.658z"/></svg>