<svg xmlns="http://www.w3.org/2000/svg" width="48.117" height="48.862"><path d="M47.212 0h-9.226a.8.8 0 00-.827.827V2.71c-9.439-.009-22.278-.018-28.766 0a4.439 4.439 0 00-4.541 4.267v.076a4.142 4.142 0 001.126 2.8 4.291 4.291 0 00-2.943 4.015 4.173 4.173 0 001.33 3 4.227 4.227 0 00-2.442 3.808v.08a4.129 4.129 0 001.375 3.089 4.253 4.253 0 00-2.3 3.714 4.4 4.4 0 004.5 4.27l14.333.015-.277 9.934v.039a6.914 6.914 0 006.028 6.741l1.93.3a.868.868 0 001-.792l.8-10.513a7.2 7.2 0 011.287-3.589 6.878 6.878 0 011.752-1.75c.282-.192.615-.4.946-.617a30.189 30.189 0 004.858-3.709v3a.87.87 0 00.827.909h9.23a.939.939 0 00.908-.909V.827A.87.87 0 0047.212 0zM31.344 30.142c-.336.222-.663.431-.955.63a8.622 8.622 0 00-2.2 2.188 8.933 8.933 0 00-1.6 4.455l-.731 9.577-1.015-.158h-.024a5.206 5.206 0 01-4.526-5.034l.3-10.8a.868.868 0 00-.867-.892l-15.228-.021a2.525 2.525 0 110-5.025h6.9a.868.868 0 100-1.736H5.267a2.682 2.682 0 01-2.608-2.576v-.08a2.635 2.635 0 012.726-2.551h5.446a.868.868 0 100-1.736H6.558a2.677 2.677 0 01-2.776-2.553 2.676 2.676 0 012.776-2.546h4.032a.868.868 0 100-1.736H8.406a2.674 2.674 0 01-2.818-2.495v-.076a2.7 2.7 0 012.81-2.534c6.486-.015 19.323-.006 28.761 0v20.529c-.868 1.908-3.725 3.789-5.815 5.17zm15.037-.09h-7.486V1.736h7.486zm0 0" fill="#fff"/></svg>