<svg xmlns="http://www.w3.org/2000/svg" width="76" height="86"><defs><linearGradient id="a" x1="-391" x2="-391" y1="-3061" y2="-3061" gradientUnits="userSpaceOnUse"><stop offset="0" stop-color="#3c99f4"/><stop offset="1" stop-color="#cc10d9"/></linearGradient><linearGradient id="b" x1="23.16" x2="40.34" y1="12.42" y2="32.73" gradientUnits="userSpaceOnUse"><stop offset="0" stop-color="#3c99f4"/><stop offset="1" stop-color="#cc10d9"/></linearGradient></defs><path fill="url(#a)" d="M70.671 80.59H10.258a4.028 4.028 0 010-8.055h60.413zM6.231 9.439a4.032 4.032 0 014.027-4.028h1.343v61.756c-1.481 0-3.213-.123-5.37.902zm64.44 57.728h-53.7V5.41h53.7zM73.356.04H10.258C5.077.04.861 4.256.861 9.438v67.125c0 5.182 4.216 9.398 9.397 9.398h63.098a2.685 2.685 0 002.685-2.685V2.726A2.685 2.685 0 0073.356.04z"/><path fill="url(#b)" d="M33.263 23.336h-3.29l1.645-4.934zm-9.206 9.26a2.684 2.684 0 003.396-1.698l.73-2.192h6.87l.73 2.192a2.685 2.685 0 105.095-1.699l-4.945-14.836c-1.379-4.135-7.25-4.137-8.629 0L22.36 29.199a2.685 2.685 0 001.698 3.397z"/></svg>