<svg xmlns="http://www.w3.org/2000/svg" width="115" height="88"><defs><linearGradient id="a" x1="77.04" x2="15.01" y1="63.23" y2="16.2" gradientUnits="userSpaceOnUse"><stop offset="0" stop-color="#c714d9"/><stop offset="1" stop-color="#478ef1"/></linearGradient><linearGradient id="b" x1="113.03" x2="-98.67" y1="86" y2="-15.88" gradientUnits="userSpaceOnUse"><stop offset="0" stop-color="#c714d9"/><stop offset="1" stop-color="#478ef1"/></linearGradient></defs><path fill="url(#a)" d="M51.012 54.107V33.315l16.633 10.396zm24.494-13.154L49.483 24.688a3.253 3.253 0 00-4.978 2.758v32.53a3.253 3.253 0 004.977 2.759L75.506 46.47a3.253 3.253 0 000-5.517z"/><path fill="none" stroke="#0e0848" stroke-miterlimit="20" stroke-width="3" d="M51.012 54.107V33.315l16.633 10.396zm24.494-13.154L49.483 24.688a3.253 3.253 0 00-4.978 2.758v32.53a3.253 3.253 0 004.977 2.759L75.506 46.47a3.253 3.253 0 000-5.517z"/><path fill="url(#b)" d="M106.529 69.735c0 5.381-4.378 9.76-9.759 9.76H18.265c-5.381 0-9.759-4.379-9.759-9.76V17.687c0-5.38 4.378-9.758 9.759-9.758H96.77c5.381 0 9.759 4.377 9.759 9.758zM96.77 1.423H18.265C9.296 1.423 2 8.719 2 17.687v52.048C2 78.704 9.296 86 18.265 86H96.77c8.969 0 16.265-7.296 16.265-16.265V17.687c0-8.968-7.296-16.264-16.265-16.264z"/><path fill="none" stroke="#0e0848" stroke-miterlimit="20" stroke-width="3" d="M106.529 69.735c0 5.381-4.378 9.76-9.759 9.76H18.265c-5.381 0-9.759-4.379-9.759-9.76V17.687c0-5.38 4.378-9.758 9.759-9.758H96.77c5.381 0 9.759 4.377 9.759 9.758zM96.77 1.423H18.265C9.296 1.423 2 8.719 2 17.687v52.048C2 78.704 9.296 86 18.265 86H96.77c8.969 0 16.265-7.296 16.265-16.265V17.687c0-8.968-7.296-16.264-16.265-16.264z"/></svg>