<svg xmlns="http://www.w3.org/2000/svg" width="86" height="86"><defs><linearGradient id="a" x1="70.26" x2="4.48" y1="79.92" y2="6.21" gradientUnits="userSpaceOnUse"><stop offset="0" stop-color="#c813d9"/><stop offset="1" stop-color="#488df1"/></linearGradient><linearGradient id="b" x1="65.57" x2="32.68" y1="45.09" y2="16.73" gradientUnits="userSpaceOnUse"><stop offset="0" stop-color="#c813d9"/><stop offset="1" stop-color="#488df1"/></linearGradient><linearGradient id="c" x1="54.31" x2="49.24" y1="90.63" y2="56.61" gradientUnits="userSpaceOnUse"><stop offset="0" stop-color="#c813d9"/><stop offset="1" stop-color="#488df1"/></linearGradient><linearGradient id="d" x1="56.06" x2="35.81" y1="59.92" y2="54.24" gradientUnits="userSpaceOnUse"><stop offset="0" stop-color="#c813d9"/><stop offset="1" stop-color="#488df1"/></linearGradient><linearGradient id="e" x1="18.49" x2="13.44" y1="90.63" y2="56.61" gradientUnits="userSpaceOnUse"><stop offset="0" stop-color="#c813d9"/><stop offset="1" stop-color="#488df1"/></linearGradient><linearGradient id="f" x1="20.24" x2=".01" y1="59.92" y2="54.24" gradientUnits="userSpaceOnUse"><stop offset="0" stop-color="#c813d9"/><stop offset="1" stop-color="#488df1"/></linearGradient><linearGradient id="g" x1="38.15" x2="17.9" y1="90.63" y2="56.61" gradientUnits="userSpaceOnUse"><stop offset="0" stop-color="#c813d9"/><stop offset="1" stop-color="#488df1"/></linearGradient><linearGradient id="h" x1="38.15" x2="17.92" y1="90.62" y2="56.62" gradientUnits="userSpaceOnUse"><stop offset="0" stop-color="#c813d9"/><stop offset="1" stop-color="#488df1"/></linearGradient><linearGradient id="i" x1="-808" x2="-808" y1="-3061" y2="-3061" gradientUnits="userSpaceOnUse"><stop offset="0" stop-color="#c813d9"/><stop offset="1" stop-color="#488df1"/></linearGradient></defs><path fill="url(#a)" d="M82.378 23.321c0 10.863-8.836 19.7-19.699 19.7-10.863 0-19.699-8.837-19.699-19.7s8.836-19.7 19.7-19.7c10.862 0 19.698 8.837 19.698 19.7zm3.582 0c0-12.837-10.444-23.28-23.28-23.28-12.837 0-23.282 10.443-23.282 23.28 0 12.837 10.445 23.28 23.281 23.28 12.837 0 23.28-10.443 23.28-23.28z"/><path fill="url(#b)" d="M59.097 32.275a1.81 1.81 0 01-1.268-.523l-7.163-7.163a1.792 1.792 0 010-2.532 1.792 1.792 0 012.532 0l5.81 5.81 11.275-12.888a1.785 1.785 0 012.529-.168c.744.652.82 1.784.168 2.529L60.444 31.666a1.787 1.787 0 01-1.29.61h-.057z"/><path fill="url(#c)" d="M53.725 75.255a1.79 1.79 0 01-1.79-1.79v-17.91a1.791 1.791 0 013.58 0v17.908c0 .989-.802 1.791-1.79 1.791z"/><path fill="url(#d)" d="M59.097 57.347H48.352a1.791 1.791 0 010-3.582h10.745a1.791 1.791 0 010 3.582z"/><path fill="url(#e)" d="M17.908 75.255a1.79 1.79 0 01-1.79-1.79v-17.91a1.791 1.791 0 013.58 0v17.908a1.79 1.79 0 01-1.79 1.791z"/><path fill="url(#f)" d="M23.28 57.347H12.537a1.791 1.791 0 010-3.582H23.28a1.791 1.791 0 010 3.582z"/><path fill="url(#g)" d="M41.189 75.255c-.61 0-1.2-.308-1.537-.87L28.907 56.476a1.79 1.79 0 113.07-1.845L42.722 72.54a1.793 1.793 0 01-1.533 2.715z"/><path fill="url(#h)" d="M30.444 75.255a1.79 1.79 0 01-1.533-2.711l10.745-17.909a1.79 1.79 0 113.07 1.845L31.98 74.388a1.792 1.792 0 01-1.537.867z"/><path fill="url(#i)" d="M62.679 86H8.954C4.02 86 0 81.981 0 77.046V8.994C0 4.06 4.019.04 8.954.04h25.072a1.791 1.791 0 010 3.582H8.954a5.379 5.379 0 00-5.372 5.372v68.052a5.379 5.379 0 005.372 5.372H62.68a5.379 5.379 0 005.372-5.372v-21.49a1.791 1.791 0 013.582 0v21.49c0 4.935-4.019 8.954-8.954 8.954z"/></svg>