<svg xmlns="http://www.w3.org/2000/svg" width="83" height="89"><defs><linearGradient id="a" x1="56.17" x2="19" y1="70.16" y2="16.08" gradientUnits="userSpaceOnUse"><stop offset="0" stop-color="#8b29c2"/><stop offset="1" stop-color="#4293f2"/><stop offset="1" stop-color="#5d78ed"/></linearGradient><linearGradient id="b" x1="65.04" x2="-9.37" y1="265.31" y2="-571.88" gradientUnits="userSpaceOnUse"><stop offset="0" stop-color="#8b29c2"/><stop offset="1" stop-color="#4293f2"/><stop offset="1" stop-color="#5d78ed"/></linearGradient><linearGradient id="c" x1="54.69" x2="8.21" y1="52.38" y2="-1.52" gradientUnits="userSpaceOnUse"><stop offset="0" stop-color="#8b29c2"/><stop offset="1" stop-color="#4293f2"/><stop offset="1" stop-color="#5d78ed"/></linearGradient><linearGradient id="d" x1="38.44" x2="1.23" y1="52.38" y2="-1.52" gradientUnits="userSpaceOnUse"><stop offset="0" stop-color="#8b29c2"/><stop offset="1" stop-color="#4293f2"/><stop offset="1" stop-color="#5d78ed"/></linearGradient><linearGradient id="e" x1="35.48" x2="16.89" y1="61.25" y2="7.35" gradientUnits="userSpaceOnUse"><stop offset="0" stop-color="#8b29c2"/><stop offset="1" stop-color="#4293f2"/><stop offset="1" stop-color="#5d78ed"/></linearGradient><linearGradient id="f" x1="41.39" x2="-14.4" y1="43.51" y2="-10.39" gradientUnits="userSpaceOnUse"><stop offset="0" stop-color="#8b29c2"/><stop offset="1" stop-color="#4293f2"/><stop offset="1" stop-color="#5d78ed"/></linearGradient><linearGradient id="g" x1="50.26" x2="-5.53" y1="61.25" y2="7.35" gradientUnits="userSpaceOnUse"><stop offset="0" stop-color="#8b29c2"/><stop offset="1" stop-color="#4293f2"/><stop offset="1" stop-color="#5d78ed"/></linearGradient><linearGradient id="h" x1="53.22" x2="34.63" y1="79.03" y2="24.95" gradientUnits="userSpaceOnUse"><stop offset="0" stop-color="#8b29c2"/><stop offset="1" stop-color="#4293f2"/><stop offset="1" stop-color="#5d78ed"/></linearGradient><linearGradient id="i" x1="39.91" x2="-6.57" y1="70.16" y2="16.08" gradientUnits="userSpaceOnUse"><stop offset="0" stop-color="#8b29c2"/><stop offset="1" stop-color="#4293f2"/><stop offset="1" stop-color="#5d78ed"/></linearGradient><linearGradient id="j" x1="39.91" x2="-6.57" y1="79.03" y2="24.95" gradientUnits="userSpaceOnUse"><stop offset="0" stop-color="#8b29c2"/><stop offset="1" stop-color="#4293f2"/><stop offset="1" stop-color="#5d78ed"/></linearGradient><linearGradient id="k" x1="66.52" x2="-35.75" y1="239.04" y2="-354.05" gradientUnits="userSpaceOnUse"><stop offset="0" stop-color="#8b29c2"/><stop offset="1" stop-color="#4293f2"/><stop offset="1" stop-color="#5d78ed"/></linearGradient><linearGradient id="l" x1="35.48" x2="-187.66" y1="498.94" y2="-1121.54" gradientUnits="userSpaceOnUse"><stop offset="0" stop-color="#8b29c2"/><stop offset="1" stop-color="#4293f2"/><stop offset="1" stop-color="#5d78ed"/></linearGradient><linearGradient id="m" x1="39.91" x2="-6.57" y1="87.9" y2="33.82" gradientUnits="userSpaceOnUse"><stop offset="0" stop-color="#8b29c2"/><stop offset="1" stop-color="#4293f2"/><stop offset="1" stop-color="#5d78ed"/></linearGradient><linearGradient id="n" x1="20.7" x2="-16.51" y1="93.37" y2="-122.59" gradientUnits="userSpaceOnUse"><stop offset="0" stop-color="#8b29c2"/><stop offset="1" stop-color="#4293f2"/><stop offset="1" stop-color="#5d78ed"/></linearGradient><linearGradient id="o" x1="20.7" x2="-16.51" y1="128.9" y2="-87.25" gradientUnits="userSpaceOnUse"><stop offset="0" stop-color="#8b29c2"/><stop offset="1" stop-color="#4293f2"/><stop offset="1" stop-color="#5d78ed"/></linearGradient><linearGradient id="p" x1="20.7" x2="-16.51" y1="111.16" y2="-104.99" gradientUnits="userSpaceOnUse"><stop offset="0" stop-color="#8b29c2"/><stop offset="1" stop-color="#4293f2"/><stop offset="1" stop-color="#5d78ed"/></linearGradient></defs><path fill="url(#a)" d="M62.084 55.003a1.48 1.48 0 00-1.478-1.479h-8.87a1.479 1.479 0 000 2.957h8.87c.816 0 1.478-.662 1.478-1.478z"/><path fill="url(#b)" d="M56.171 16.57V9.179a1.479 1.479 0 00-2.956 0v7.39c0 4.076 3.315 7.392 7.39 7.392H73.91v28.085a1.479 1.479 0 002.957 0V22.482c0-.815-.662-1.478-1.478-1.478H60.606a4.44 4.44 0 01-4.435-4.434z"/><path fill="url(#c)" d="M60.606 35.786H48.78a1.479 1.479 0 000 2.956h11.826a1.479 1.479 0 000-2.956z"/><path fill="url(#d)" d="M44.346 37.264c0-.816-.663-1.478-1.478-1.478h-8.87a1.479 1.479 0 000 2.956h8.87c.815 0 1.478-.662 1.478-1.478z"/><path fill="url(#e)" d="M33.998 44.655a1.479 1.479 0 000 2.956h2.957a1.479 1.479 0 000-2.956h-2.957z"/><path fill="url(#f)" d="M33.998 29.873H48.78a1.479 1.479 0 000-2.956H33.998a1.479 1.479 0 000 2.956z"/><path fill="url(#g)" d="M42.867 47.612H57.65a1.479 1.479 0 000-2.957H42.867a1.479 1.479 0 000 2.957z"/><path fill="url(#h)" d="M51.736 62.393a1.479 1.479 0 000 2.957h2.957a1.479 1.479 0 000-2.957z"/><path fill="url(#i)" d="M45.824 53.524H33.998a1.479 1.479 0 000 2.957h11.826a1.479 1.479 0 000-2.957z"/><path fill="url(#j)" d="M45.824 62.393H33.998a1.479 1.479 0 000 2.957h11.826a1.479 1.479 0 000-2.957z"/><path fill="url(#k)" d="M78.928 67.11l-1.912 1.912-6.779-6.78 1.912-1.91c1.168-1.167 2.649-1.173 3.822 0l2.957 2.956c1.196 1.197 1.196 2.626 0 3.822zM62.084 83.954l-2.345-2.344 12.843-12.843 2.344 2.345zm-8.87 2.09v-6.779l6.78 6.78zm14.933-21.711l2.345 2.344L57.649 79.52l-2.344-2.344zm12.87-3.135l-2.955-2.957c-2.273-2.272-5.734-2.267-8.003 0L50.69 77.61a1.48 1.48 0 00-.433 1.045v8.869c0 .816.663 1.478 1.478 1.478h8.87a1.48 1.48 0 001.045-.433L81.018 69.2c2.355-2.355 2.355-5.647 0-8.003z"/><path fill="url(#l)" d="M45.824 86.044H7.39a4.44 4.44 0 01-4.435-4.434V7.7A4.44 4.44 0 017.39 3.266h46.69l14.35 14.349a1.476 1.476 0 002.09 0 1.476 1.476 0 000-2.09L55.738.743A1.475 1.475 0 0054.693.31H7.39C3.316.31 0 3.625 0 7.7v73.91c0 4.075 3.316 7.391 7.391 7.391h38.433a1.479 1.479 0 000-2.957z"/><path fill="url(#m)" d="M45.824 71.263H33.998a1.479 1.479 0 000 2.956h11.826a1.479 1.479 0 000-2.956z"/><path fill="url(#n)" d="M23.65 35.786h-5.912v-5.913h5.913zm2.957-7.39c0-.817-.662-1.479-1.478-1.479H16.26c-.816 0-1.478.662-1.478 1.478v8.87c0 .815.662 1.477 1.478 1.477h8.87c.815 0 1.477-.662 1.477-1.478z"/><path fill="url(#o)" d="M17.738 65.35h5.913v5.913h-5.913zm7.391 8.87a1.48 1.48 0 001.478-1.48v-8.868c0-.816-.662-1.478-1.478-1.478h-8.87c-.815 0-1.477.662-1.477 1.478v8.869c0 .816.662 1.478 1.478 1.478z"/><path fill="url(#p)" d="M18.171 56.048a1.48 1.48 0 002.275-.225l5.913-8.87a1.48 1.48 0 00-2.46-1.64l-4.912 7.369L17.305 51a1.476 1.476 0 00-2.09 0 1.477 1.477 0 000 2.09z"/></svg>