<svg xmlns="http://www.w3.org/2000/svg" width="46" height="42"><defs><linearGradient id="a" x1="0" x2="45.5" y1="21.12" y2="21.12" gradientUnits="userSpaceOnUse"><stop offset="0" stop-color="#80d8ff"/><stop offset="1" stop-color="#ea80fc"/></linearGradient></defs><path fill="url(#a)" d="M43.723 9.52h-1.6v-1.6a1.777 1.777 0 10-3.555 0v1.599h-1.6a1.777 1.777 0 100 3.555h1.6v1.6a1.777 1.777 0 103.555 0v-1.6h1.6a1.777 1.777 0 100-3.555zM3.644 38.444c.894-8.822 8.364-15.73 17.418-15.73 9.053 0 16.523 6.908 17.417 15.73zm9.553-27.149c0-4.336 3.528-7.864 7.865-7.864 4.336 0 7.864 3.528 7.864 7.864 0 4.337-3.528 7.865-7.864 7.865-4.337 0-7.865-3.528-7.865-7.865zm14.833 9.04a11.406 11.406 0 004.451-9.04C32.481 5 27.358-.123 21.061-.123 14.766-.123 9.643 5 9.643 11.297c0 3.675 1.746 6.95 4.452 9.04C6.069 23.142 0 30.84 0 40.223 0 41.204.796 42 1.777 42h38.569c.981 0 1.777-.796 1.777-1.777 0-9.385-6.073-17.083-14.093-19.886z"/></svg>