<svg xmlns="http://www.w3.org/2000/svg" width="45" height="45"><defs><linearGradient id="a" x1="3.14" x2="42.54" y1="0" y2="43.6" gradientUnits="userSpaceOnUse"><stop offset="0" stop-color="#3b9bf4"/><stop offset="1" stop-color="#cc10d9"/></linearGradient></defs><path fill="url(#a)" d="M20.244 26.47a1.73 1.73 0 00-2.445-2.446l-7.423 7.424-7.424-7.423A1.729 1.729 0 10.507 26.47l7.423 7.423-7.423 7.424a1.729 1.729 0 102.445 2.446l7.424-7.424 7.423 7.423a1.729 1.729 0 102.445-2.445l-7.423-7.424 7.423-7.423zm13.65-23.01a6.925 6.925 0 016.917 6.917 6.925 6.925 0 01-6.918 6.917 6.925 6.925 0 01-6.917-6.917 6.925 6.925 0 016.917-6.917zm0 17.292c5.72 0 10.375-4.654 10.375-10.375C44.269 4.654 39.615 0 33.893 0c-5.72 0-10.375 4.654-10.375 10.376 0 5.72 4.654 10.375 10.375 10.375zm6.916 20.06H29.422L40.81 29.421zm2.392-17.161a1.73 1.73 0 00-1.885.374L24.025 41.317a1.729 1.729 0 001.222 2.952H42.54a1.73 1.73 0 001.729-1.73V25.248c0-.7-.421-1.33-1.067-1.597zm-25.91-6.357H3.46V3.459h13.834zM19.023 0H1.729A1.73 1.73 0 000 1.73v17.292c0 .955.774 1.73 1.73 1.73h17.292a1.73 1.73 0 001.73-1.73V1.729A1.73 1.73 0 0019.021 0z"/></svg>