<svg xmlns="http://www.w3.org/2000/svg" width="31" height="31"><defs><linearGradient id="a" y1=".504" x2="1" y2=".504" gradientUnits="objectBoundingBox"><stop offset="0" stop-color="#80d8ff"/><stop offset="1" stop-color="#ea80fc"/></linearGradient></defs><path d="M15.5 0A15.5 15.5 0 1031 15.5 15.492 15.492 0 0015.5 0zm0 28.578A13.078 13.078 0 1128.578 15.5 13.071 13.071 0 0115.5 28.578zm4.507-15.167h-1.093l1.734-4.624a2.12 2.12 0 00-1.984-2.863h-4.72A2.129 2.129 0 0011.959 7.3l-2.951 7.87a2.12 2.12 0 001.984 2.863h1.571l-1.553 4.175a2.118 2.118 0 003.468 2.255l6.984-7.391a2.12 2.12 0 00-1.455-3.661zM13.8 21.653l1.64-4.409a1.212 1.212 0 00-1.135-1.633h-2.876l2.725-7.266h4.074L16.032 14.2a1.212 1.212 0 001.134 1.636H19.3z" fill="url(#a)"/></svg>