<svg xmlns="http://www.w3.org/2000/svg" width="33.051" height="34.565"><defs><linearGradient id="a" y1=".5" x2="1" y2=".5" gradientUnits="objectBoundingBox"><stop offset="0" stop-color="#80d8ff"/><stop offset="1" stop-color="#ea80fc"/></linearGradient></defs><path d="M24.916 11.716l-4.344 1.514L17.6 8.567a1.261 1.261 0 00-2.148 0l-2.973 4.663-4.344-1.514a1.315 1.315 0 00-1.675 1.546c1.919 9.633 1.622 9.379 2.113 9.892a10.913 10.913 0 0015.9 0c.49-.513.2-.279 2.113-9.892a1.314 1.314 0 00-1.67-1.546zm-2.538 9.8a8.4 8.4 0 01-11.706 0l-1.244-6.5 3.169 1.1a1.262 1.262 0 001.482-.532l2.445-3.836 2.445 3.836a1.262 1.262 0 001.482.532l3.169-1.1zM16.525 0C7.392 0 0 7.73 0 17.282s7.391 17.283 16.525 17.283 16.525-7.73 16.525-17.282S25.66 0 16.525 0zm0 31.865c-7.706 0-13.943-6.522-13.943-14.582S8.818 2.7 16.525 2.7s13.944 6.522 13.944 14.582-6.236 14.583-13.944 14.583zm0 0" fill="url(#a)"/></svg>