<svg xmlns="http://www.w3.org/2000/svg" width="64.472" height="65.485"><defs><linearGradient id="a" x1="1.012" y1=".571" x2="-.184" y2=".388" gradientUnits="objectBoundingBox"><stop offset="0" stop-color="#c317db"/><stop offset="1" stop-color="#26aef8"/></linearGradient></defs><path d="M64.185 28.054a4.69 4.69 0 00-2.9-2 4.717 4.717 0 00-3.146-6.8 4.729 4.729 0 00-.244-4.805 4.687 4.687 0 00-2.9-2A4.722 4.722 0 0048.2 6.316L43.5 9.43a29.379 29.379 0 00-7.938-2.686 21.827 21.827 0 00-3.029-3.665l-1.949-1.885a4.256 4.256 0 00-6.51 5.406q.076.116.15.233a29.622 29.622 0 1033.763 39.093 1.018 1.018 0 10-1.915-.691 27.621 27.621 0 01-34.662 16.81l8.285-5.486L36.582 52a2.777 2.777 0 00.782-3.848l-.091-.138 1.337-.886a4.536 4.536 0 013.232-.7 6.565 6.565 0 004.679-1.012l11.093-7.346a27.644 27.644 0 01-.375 2.86 1.018 1.018 0 00.815 1.187.993.993 0 00.187.017 1.018 1.018 0 001-.833 29.778 29.778 0 00.487-4.631l3.126-2.07a4.723 4.723 0 001.33-6.545zM41.519 10.739L38.408 12.8l-.613-1.65a21.79 21.79 0 00-.874-2.024 27.332 27.332 0 014.598 1.613zM9.276 17.8A27.587 27.587 0 0125.2 8.719a12.579 12.579 0 01.634 7.619L23.35 27.063a2.772 2.772 0 00-3.554-.414l-7.032 4.656-10.143 6.717a28.153 28.153 0 01-.084-2.157A27.576 27.576 0 019.276 17.8zm26.5 32.031a.737.737 0 01-.318.471l-6.047 4-11.224-16.736A1.018 1.018 0 0016.5 38.7l11.213 16.729-8.633 5.717A27.669 27.669 0 012.887 40.25l10.154-6.7 1.169 1.744a1.018 1.018 0 101.69-1.137l-1.161-1.731 6.18-4.079a.741.741 0 011.026.209l13.72 20.718a.734.734 0 01.11.555zM62.88 31.2a2.668 2.668 0 01-1.15 1.7l-3.574 2.367L45.4 43.718a4.533 4.533 0 01-3.232.7 6.569 6.569 0 00-4.679 1.012l-1.337.886-11.24-16.971 2.9-12.548a14.63 14.63 0 00-1.071-9.6A1 1 0 0026.7 7.1a14.4 14.4 0 00-.932-1.629 2.219 2.219 0 013.4-2.819l1.945 1.886a19.894 19.894 0 014.774 7.317l1.059 2.853.006.015.008.02a.412.412 0 00.022.047 1 1 0 00.07.126 1.018 1.018 0 001.411.287l10.86-7.191a2.686 2.686 0 112.967 4.479l-.943.625-2.1 1.393-.008.005-.033.024a1.018 1.018 0 001.166 1.668l2.1-1.394a2.687 2.687 0 012.964 4.488l-3.047 2.018a1.018 1.018 0 101.124 1.7l.472-.312 1.632-1.081a2.687 2.687 0 012.967 4.48l-1.522 1.008-.024.016-1.5.994a1.018 1.018 0 101.124 1.7l.472-.312 1.632-1.08A2.686 2.686 0 0162.88 31.2zm0 0" transform="translate(-.5)" fill="url(#a)"/></svg>