<svg xmlns="http://www.w3.org/2000/svg" width="48.117" height="48.862"><path d="M.905 48.862h9.226a.8.8 0 00.827-.827v-1.883c9.439.009 22.278.018 28.766 0a4.439 4.439 0 004.541-4.267v-.076a4.142 4.142 0 00-1.126-2.8 4.291 4.291 0 002.943-4.015 4.173 4.173 0 00-1.33-3 4.227 4.227 0 002.442-3.808v-.08a4.129 4.129 0 00-1.375-3.089 4.253 4.253 0 002.3-3.714 4.4 4.4 0 00-4.5-4.27l-14.333-.015.277-9.934v-.039A6.914 6.914 0 0023.535.304l-1.93-.3a.868.868 0 00-1 .792l-.8 10.513a7.2 7.2 0 01-1.287 3.589 6.878 6.878 0 01-1.752 1.75c-.282.192-.615.4-.946.617a30.189 30.189 0 00-4.858 3.709v-3a.87.87 0 00-.827-.909H.905a.939.939 0 00-.908.909v30.061a.87.87 0 00.908.827zM16.773 18.72c.336-.222.663-.431.955-.63a8.622 8.622 0 002.2-2.188 8.933 8.933 0 001.6-4.455l.731-9.577 1.015.158h.024a5.206 5.206 0 014.526 5.034l-.3 10.8a.868.868 0 00.867.892l15.228.021a2.525 2.525 0 110 5.025h-6.9a.868.868 0 100 1.736h6.131a2.682 2.682 0 012.608 2.576v.08a2.635 2.635 0 01-2.726 2.551h-5.446a.868.868 0 100 1.736h4.273a2.677 2.677 0 012.776 2.553 2.676 2.676 0 01-2.776 2.546h-4.032a.868.868 0 100 1.736h2.184a2.674 2.674 0 012.818 2.495v.076a2.7 2.7 0 01-2.81 2.534c-6.486.015-19.323.006-28.761 0V23.89c.868-1.908 3.725-3.789 5.815-5.17zm-15.037.09h7.486v28.316H1.736zm0 0" fill="#fff"/></svg>