<svg xmlns="http://www.w3.org/2000/svg" width="34.196" height="34.565"><defs><linearGradient id="a" y1=".5" x2="1" y2=".5" gradientUnits="objectBoundingBox"><stop offset="0" stop-color="#80d8ff"/><stop offset="1" stop-color="#ea80fc"/></linearGradient></defs><path d="M25.779 11.716l-4.494 1.514-3.076-4.663a1.329 1.329 0 00-2.223 0L12.91 13.23l-4.494-1.514a1.342 1.342 0 00-1.732 1.546c1.985 9.633 1.679 9.379 2.186 9.892a11.561 11.561 0 0016.455 0c.507-.513.205-.279 2.186-9.892a1.342 1.342 0 00-1.732-1.546zm-2.626 9.8a8.9 8.9 0 01-12.111 0l-1.287-6.5 3.279 1.1a1.328 1.328 0 001.534-.532L17.1 11.75l2.53 3.836a1.328 1.328 0 001.534.532l3.279-1.1zM17.1 0A17.182 17.182 0 000 17.282a17.1 17.1 0 1034.2 0A17.182 17.182 0 0017.1 0zm0 31.865a14.583 14.583 0 1114.424-14.583A14.5 14.5 0 0117.1 31.865zm0 0" fill="url(#a)"/></svg>