<svg xmlns="http://www.w3.org/2000/svg" width="50" height="50"><defs><linearGradient id="a" x1="7.61" x2="40.12" y1="9.7" y2="43.56" gradientUnits="userSpaceOnUse"><stop offset="0" stop-color="#3e97f3"/><stop offset="1" stop-color="#c714da"/></linearGradient></defs><path fill="url(#a)" d="M31.608 19.596c0-3.168-2.864-5.56-7.178-5.56-4.55 0-6.639 2.695-6.639 4.515 0 1.314 1.112 1.921 2.022 1.921 1.82 0 1.078-2.595 4.516-2.595 1.685 0 3.033.742 3.033 2.292 0 1.82-1.887 2.864-3 3.808-.977.842-2.257 2.224-2.257 5.122 0 1.753.471 2.258 1.853 2.258 1.651 0 1.988-.741 1.988-1.382 0-1.752.034-2.763 1.888-4.212.91-.708 3.774-3 3.774-6.167zm-7.616 14.086c-1.415 0-2.561 1.18-2.561 2.595 0 1.382 1.112 2.595 2.56 2.595 1.45 0 2.596-1.213 2.596-2.595a2.618 2.618 0 00-2.595-2.595zm.758 12.45H3.867V25.25c0-11.541 9.34-20.883 20.883-20.883 11.541 0 20.883 9.34 20.883 20.883 0 11.541-9.34 20.883-20.883 20.883zM24.75.5C11.071.5 0 11.57 0 25.25v22.816C0 49.134.866 50 1.934 50H24.75C38.429 50 49.5 38.93 49.5 25.25 49.5 11.571 38.43.5 24.75.5z"/></svg>