<svg xmlns="http://www.w3.org/2000/svg" width="66.998" height="65.92"><g fill="#fff"><path data-name="Контур 10486" d="M65.816 36.222a5.54 5.54 0 00-5.222-2.045 5.536 5.536 0 00-6.981-1.046l-.389.226a5.555 5.555 0 00-6.575-.639l-11.475 6.655-3.892-.486 5.434-3.894a5.53 5.53 0 00-4.168-9.943l-1.174.2a33.849 33.849 0 00-13.28 5.365.981.981 0 001.1 1.625 31.9 31.9 0 0112.515-5.056l1.174-.2a3.549 3.549 0 014.106 2.8 3.568 3.568 0 01-1.417 3.613L28.1 38.752a.981.981 0 00.45 1.772l20.035 2.5a.979.979 0 00.63-.135l10.4-6.306a3.574 3.574 0 014.659.848 3.57 3.57 0 01-.158 4.6L54.63 52.537a5.642 5.642 0 01-3.472 1.815l-28.149 3.584-.841-1.462L11.56 38.037l4.535-3.483a.983.983 0 00-1.2-1.557l-5.18 3.979-9.262 5.923a.981.981 0 00-.322 1.316l12.2 21.213a.981.981 0 001.379.337l9.116-5.827L51.4 56.3a7.607 7.607 0 004.68-2.446l9.486-10.506a5.533 5.533 0 00.245-7.126zm-18.175-1.81l.016-.01a3.585 3.585 0 013.73.02l-9.9 5.741-3.1-.387zm.847 6.626l-3.78-.472 9.9-5.74.017-.01a3.571 3.571 0 013.906.135zm-34.967 22.52L2.3 44.049l7.643-4.891 10.591 18.411.632 1.1z"/><path data-name="Контур 10487" d="M15.225 54.733a2.983 2.983 0 102.983 2.983 2.987 2.987 0 00-2.983-2.983zm0 4a1.02 1.02 0 111.02-1.02 1.021 1.021 0 01-1.02 1.023z"/><path data-name="Контур 10488" d="M30.185 15.446a1.777 1.777 0 01.512 1.575l-.5 2.909a3.737 3.737 0 005.429 3.945l2.615-1.374a1.77 1.77 0 011.654 0l2.613 1.373a3.742 3.742 0 005.43-3.945l-.5-2.91a1.779 1.779 0 01.511-1.575l2.12-2.058a3.742 3.742 0 00-2.074-6.382l-.98-.143a.981.981 0 10-.283 1.942l.981.143a1.779 1.779 0 01.986 3.034l-2.115 2.06a3.741 3.741 0 00-1.075 3.313l.5 2.909a1.779 1.779 0 01-2.582 1.876l-2.612-1.372a3.73 3.73 0 00-3.483 0l-2.614 1.373a1.779 1.779 0 01-2.581-1.876l.5-2.908a3.739 3.739 0 00-1.077-3.314l-2.113-2.059a1.779 1.779 0 01.986-3.034l2.922-.425a3.739 3.739 0 002.814-2.049l1.308-2.648a1.779 1.779 0 013.19 0l1.302 2.648a3.726 3.726 0 00.493.754.981.981 0 101.5-1.266 1.757 1.757 0 01-.233-.356l-1.307-2.647a3.741 3.741 0 00-6.71 0l-1.308 2.648a1.777 1.777 0 01-1.339.973l-2.921.425a3.742 3.742 0 00-2.075 6.381z"/><path data-name="Контур 10489" d="M18.507 5.783l2.568 1.257a2.728 2.728 0 001.2.278 2.758 2.758 0 002.389-1.373l.132-.228a2.758 2.758 0 00-.847-3.656l-2.373-1.6a2.75 2.75 0 00-3.916.907l-.327.567a2.75 2.75 0 001.174 3.848zm.527-2.863l.327-.567a.779.779 0 01.5-.373.8.8 0 01.18-.021.778.778 0 01.437.134l2.373 1.6a.789.789 0 01.242 1.046l-.132.228a.789.789 0 01-1.027.313l-2.568-1.257a.787.787 0 01-.336-1.1z"/><path data-name="Контур 10490" d="M59.629 21.822l-2.568-1.257a2.758 2.758 0 00-3.59 1.095l-.132.228a2.758 2.758 0 00.847 3.656l2.373 1.6a2.76 2.76 0 001.538.468 2.731 2.731 0 00.617-.07 2.759 2.759 0 001.761-1.3l.327-.567a2.75 2.75 0 00-1.173-3.845zm-.527 2.863l-.327.567a.787.787 0 01-1.121.259l-2.373-1.6a.789.789 0 01-.242-1.046l.132-.228a.789.789 0 011.027-.313l2.568 1.257a.787.787 0 01.336 1.1z"/><path data-name="Контур 10491" d="M15.116 16.143a2.76 2.76 0 001.879.74c.062 0 .124 0 .186-.006l2.853-.2a2.758 2.758 0 002.562-2.743v-.264a2.758 2.758 0 00-2.562-2.743l-2.853-.2a2.75 2.75 0 00-2.938 2.743v.658a2.76 2.76 0 00.873 2.015zm1.09-2.665a.787.787 0 01.785-.787h.056l2.853.2a.789.789 0 01.733.785v.264a.789.789 0 01-.733.785l-2.853.2a.787.787 0 01-.841-.785z"/><path data-name="Контур 10492" d="M60.955 10.735l-2.853.2a2.758 2.758 0 00-2.561 2.743v.264a2.758 2.758 0 002.561 2.743l2.853.2q.093.006.186.006a2.749 2.749 0 002.752-2.75v-.655a2.75 2.75 0 00-2.938-2.743zm.725 2.168a.779.779 0 01.25.575v.655a.787.787 0 01-.841.785l-2.853-.2a.789.789 0 01-.733-.785v-.264a.789.789 0 01.733-.785l2.853-.2h.056a.78.78 0 01.535.212z"/><path data-name="Контур 10493" d="M21.076 20.568l-2.568 1.257a2.75 2.75 0 00-1.173 3.845l.328.567a2.751 2.751 0 003.916.907l2.373-1.6a2.758 2.758 0 00.847-3.657l-.132-.228a2.758 2.758 0 00-3.591-1.091zm1.78 3.351l-2.373 1.6a.787.787 0 01-1.121-.259l-.328-.567a.787.787 0 01.336-1.1l2.568-1.257a.779.779 0 01.344-.08.789.789 0 01.684.393l.132.228a.789.789 0 01-.242 1.046z"/><path data-name="Контур 10494" d="M53.471 5.949a2.757 2.757 0 002.389 1.373 2.729 2.729 0 001.2-.278l2.57-1.261a2.75 2.75 0 001.173-3.845l-.328-.567a2.75 2.75 0 00-3.916-.907l-2.373 1.6a2.758 2.758 0 00-.847 3.656zm1.81-2.256l2.373-1.6a.778.778 0 01.437-.134.8.8 0 01.18.021.779.779 0 01.5.373l.328.567a.787.787 0 01-.336 1.1l-2.564 1.263a.789.789 0 01-1.027-.313l-.132-.228a.789.789 0 01.242-1.046z"/></g></svg>