<svg xmlns="http://www.w3.org/2000/svg" width="45" height="48"><path fill="#00d3ff" d="M20.372 30.913v11.821c0 2.559-2.101 4.632-4.675 4.632H5.233c-2.574 0-4.689-2.073-4.689-4.632v-12.08c0-8.905 1.067-15.02 3.222-19.03 2.227-4.21 5.492-7.604 9.77-10.186C15.422.3 17.89.878 19.067 2.734l.13.203a4.01 4.01 0 01-1.14 5.464c-1.97 1.341-3.528 2.999-4.674 4.985-1.742 2.99-2.7 7.243-2.905 12.872h5.218c2.574 0 4.675 2.099 4.675 4.655zm24.075 0v11.821c0 2.559-2.09 4.632-4.664 4.632H29.275c-2.574 0-4.655-2.073-4.655-4.632v-12.08c0-8.905 1.05-15.02 3.205-19.03 2.226-4.21 5.484-7.606 9.761-10.186a4.067 4.067 0 015.528 1.296l.127.203A4.01 4.01 0 0142.102 8.4c-1.971 1.341-3.53 2.999-4.675 4.985-1.743 2.99-2.7 7.243-2.906 12.872h5.262c2.574 0 4.664 2.099 4.664 4.655z" opacity=".2"/></svg>