<svg xmlns="http://www.w3.org/2000/svg" width="40" height="40"><defs><linearGradient id="a" x1="9.96" x2="27.18" y1=".17" y2="31.14" gradientUnits="userSpaceOnUse"><stop offset="0" stop-color="#29adf8"/><stop offset="1" stop-color="#ce0ed9"/></linearGradient></defs><path fill="url(#a)" d="M36.714 20.087c0-9.287-7.516-16.8-16.801-16.8-9.287 0-16.802 7.515-16.802 16.8 0 9.287 7.516 16.802 16.802 16.802s16.8-7.516 16.8-16.802zm3.111 0C39.825 31.094 30.918 40 19.913 40 8.906 40 0 31.093 0 20.087S8.907.175 19.913.175s19.912 8.907 19.912 19.912zm-11.361-2.614l-3.818 1.273a1.555 1.555 0 01-1.787-.613l-2.946-4.42-2.947 4.42a1.555 1.555 0 01-1.786.613l-3.819-1.273 1.5 7.495c3.978 3.65 10.125 3.65 14.104 0zm3.576-2.018c-2.307 11.077-1.955 10.807-2.545 11.398-5.284 5.283-13.881 5.283-19.165 0-.59-.592-.234-.3-2.546-11.398-.234-1.171.888-2.158 2.018-1.78l5.234 1.744 3.582-5.373a1.556 1.556 0 012.589 0l3.582 5.373 5.234-1.745c1.138-.379 2.25.616 2.017 1.781z"/></svg>