<svg xmlns="http://www.w3.org/2000/svg" width="38" height="39"><path fill="#7374b4" d="M19 7.994a1.113 1.113 0 01-1.113-1.113V1.812a1.113 1.113 0 012.226 0v5.07c0 .614-.498 1.112-1.113 1.112zm17.887 12.819h-5.069a1.113 1.113 0 010-2.227h5.069a1.113 1.113 0 010 2.227zM19 38.7a1.113 1.113 0 01-1.113-1.114v-5.069a1.113 1.113 0 012.226 0v5.069c0 .615-.498 1.113-1.113 1.113zM6.182 20.813H1.113a1.113 1.113 0 010-2.227h5.069a1.113 1.113 0 010 2.227zM26.385 19.7c0 4.071-3.313 7.384-7.385 7.384-4.072 0-7.385-3.313-7.385-7.385 0-4.072 3.313-7.385 7.385-7.385 4.072 0 7.385 3.313 7.385 7.385zm2.226 0c0-5.3-4.311-9.612-9.611-9.612-5.3 0-9.611 4.312-9.611 9.611 0 5.3 4.311 9.612 9.611 9.612 5.3 0 9.611-4.312 9.611-9.612zm.774-9.21a1.113 1.113 0 01-.787-1.9l2.735-2.736a1.113 1.113 0 011.574 1.574l-2.735 2.735a1.11 1.11 0 01-.787.326zm2.735 23.504a1.11 1.11 0 01-.787-.326l-2.735-2.735a1.113 1.113 0 011.574-1.574l2.735 2.735a1.113 1.113 0 01-.787 1.9zm-26.24 0a1.113 1.113 0 01-.787-1.9l2.735-2.735a1.113 1.113 0 011.574 1.574l-2.735 2.735a1.11 1.11 0 01-.787.326zM8.615 10.49a1.11 1.11 0 01-.787-.327L5.093 7.428a1.113 1.113 0 111.574-1.574l2.735 2.735a1.113 1.113 0 01-.787 1.9z"/></svg>