<svg xmlns="http://www.w3.org/2000/svg" width="41" height="37"><path fill="#fb9f1f" d="M35.08 16.966c1.536.315 2.746 1.922 2.746 3.79 0 1.866-1.21 3.473-2.746 3.789zm-2.355 8.969c0 .649-.528 1.177-1.177 1.177h-.314a1.178 1.178 0 01-1.177-1.177v-10.36c0-.649.528-1.177 1.177-1.177h.314c.65 0 1.177.528 1.177 1.178zm-22.601 0c0 .649-.528 1.177-1.178 1.177h-.313c-.65 0-1.178-.528-1.178-1.177v-10.36c0-.649.528-1.177 1.178-1.177h.313c.65 0 1.178.528 1.178 1.178zm-7.77-5.18c0-1.867 1.21-3.474 2.747-3.79v7.58c-1.536-.316-2.747-1.923-2.747-3.79zM17.58 31.977h5.023a1.336 1.336 0 010 2.668H17.58a1.336 1.336 0 01-1.334-1.333c0-.736.598-1.335 1.334-1.335zm22.602-11.222c0-3.27-2.32-5.954-5.247-6.182a3.545 3.545 0 00-2.468-2.407C31.678 5.685 26.415.743 20.09.743c-6.324 0-11.587 4.942-12.375 11.423a3.545 3.545 0 00-2.468 2.407 5.14 5.14 0 00-.303.033V6.943a1.177 1.177 0 00-2.354 0v8.605C1.033 16.653 0 18.574 0 20.755c0 3.27 2.319 5.954 5.247 6.182a3.545 3.545 0 002.456 2.404c.502 2.92 3.05 5.148 6.11 5.148h.271A3.694 3.694 0 0017.58 37h5.023a3.693 3.693 0 003.688-3.688 3.693 3.693 0 00-3.688-3.689H17.58a3.694 3.694 0 00-3.495 2.511h-.272a3.852 3.852 0 01-3.717-2.86 3.537 3.537 0 002.383-3.34V15.577a3.537 3.537 0 00-2.398-3.344c.736-5.2 4.956-9.135 10.01-9.135 5.055 0 9.275 3.935 10.01 9.135a3.537 3.537 0 00-2.397 3.344v10.359a3.536 3.536 0 003.531 3.531h.314a3.537 3.537 0 003.386-2.529c2.928-.228 5.247-2.912 5.247-6.182z"/></svg>