<svg xmlns="http://www.w3.org/2000/svg" width="46.565" height="46.565"><path data-name="Контур 10436" d="M33.953 25.223a12.611 12.611 0 1112.612-12.612 12.626 12.626 0 01-12.612 12.612zm0-23.282a10.671 10.671 0 1010.671 10.67A10.682 10.682 0 0033.953 1.94z" fill="#fff"/><path data-name="Контур 10437" d="M32.728 17.46a.98.98 0 01-.687-.283l-3.88-3.88a.97.97 0 011.372-1.372l3.144 3.148 6.11-6.981a.971.971 0 111.461 1.279l-6.791 7.761a.968.968 0 01-.7.33z" fill="#fff"/><path data-name="Контур 10438" d="M29.818 40.744a.97.97 0 01-.97-.97v-9.7a.97.97 0 111.94 0v9.7a.97.97 0 01-.97.97z" fill="#fff"/><path data-name="Контур 10439" d="M32.728 31.043h-5.821a.97.97 0 110-1.94h5.821a.97.97 0 010 1.94z" fill="#fff"/><path data-name="Контур 10440" d="M10.415 40.744a.97.97 0 01-.97-.97v-9.7a.97.97 0 011.94 0v9.7a.97.97 0 01-.97.97z" fill="#fff"/><path data-name="Контур 10441" d="M13.326 31.043H7.505a.97.97 0 110-1.94h5.821a.97.97 0 110 1.94z" fill="#fff"/><path data-name="Контур 10442" d="M23.027 40.744a.966.966 0 01-.832-.471l-5.821-9.7a.97.97 0 111.663-1l5.821 9.7a.971.971 0 01-.332 1.329.951.951 0 01-.5.14z" fill="#fff"/><path data-name="Контур 10443" d="M17.207 40.744a.969.969 0 01-.83-1.469l5.821-9.7a.97.97 0 111.663 1l-5.824 9.699a.971.971 0 01-.832.47z" fill="#fff"/><path data-name="Контур 10444" d="M33.954 46.565H4.851A4.857 4.857 0 010 41.714V4.851A4.857 4.857 0 014.851 0h13.581a.97.97 0 010 1.94H4.851a2.914 2.914 0 00-2.91 2.91v36.864a2.914 2.914 0 002.91 2.91h29.1a2.914 2.914 0 002.91-2.91V30.073a.97.97 0 111.94 0v11.641a4.857 4.857 0 01-4.847 4.851z" fill="#fff"/></svg>