<svg xmlns="http://www.w3.org/2000/svg" width="62" height="62"><path fill="#6200eb" d="M0 31C0 13.88 13.88 0 31 0c17.12 0 31 13.88 31 31 0 17.12-13.88 31-31 31C13.88 62 0 48.12 0 31z"/><path fill="#fff" d="M47.064 22.512h-1.246v-1.246a1.385 1.385 0 10-2.77 0v1.246h-1.246a1.385 1.385 0 100 2.77h1.247v1.246a1.385 1.385 0 102.77 0v-1.246h1.245a1.385 1.385 0 100-2.77zM15.84 45.05c.696-6.873 6.516-12.255 13.57-12.255s12.874 5.382 13.57 12.255zm7.443-21.152a6.134 6.134 0 016.127-6.128 6.134 6.134 0 016.127 6.128 6.134 6.134 0 01-6.127 6.127 6.134 6.134 0 01-6.127-6.127zm11.556 7.043a8.887 8.887 0 003.468-7.043c0-4.906-3.991-8.897-8.897-8.897-4.906 0-8.897 3.991-8.897 8.897a8.887 8.887 0 003.468 7.043C17.728 33.126 13 39.124 13 46.433c0 .765.62 1.385 1.385 1.385h30.048c.765 0 1.385-.62 1.385-1.385 0-7.31-4.732-13.309-10.98-15.493z"/></svg>