<svg xmlns="http://www.w3.org/2000/svg" width="65" height="65"><g data-name="Эллипс 19" fill="#332f5f" stroke="#4a8cf1" stroke-width="2"><circle cx="32.5" cy="32.5" r="32.5" stroke="none"/><circle cx="32.5" cy="32.5" r="31.5" fill="none"/></g><g data-name="speaker (1)" fill="#fff"><path data-name="Контур 10451" d="M36.463 13.644a2.639 2.639 0 00-2.68.016.832.832 0 00-.15.113L22.242 24.378a.95.95 0 01-.412.094h-7.16a2.673 2.673 0 00-2.67 2.67v11.006a2.673 2.673 0 002.67 2.669h7.161a.95.95 0 01.412.094l11.392 10.605a.863.863 0 00.15.113 2.641 2.641 0 002.68.016 2.641 2.641 0 001.344-2.317V15.961a2.64 2.64 0 00-1.346-2.317zm-.376 35.684a.95.95 0 01-1.36.856L23.334 39.577a.8.8 0 00-.151-.113 2.664 2.664 0 00-1.352-.368H14.67a.951.951 0 01-.95-.95v-11a.951.951 0 01.95-.95h7.161a2.666 2.666 0 001.352-.368.8.8 0 00.151-.113l11.394-10.61a.949.949 0 011.359.856z"/><path data-name="Контур 10452" d="M46.833 20.293a1 1 0 000 1.414 16.02 16.02 0 010 22.628 1 1 0 101.414 1.414 18.021 18.021 0 000-25.456 1 1 0 00-1.414 0z"/><path data-name="Контур 10453" d="M44.707 23.293a1 1 0 00-1.414 1.414 11.034 11.034 0 010 15.586 1 1 0 101.414 1.414 13.035 13.035 0 000-18.414z"/></g></svg>